<?xml version="1.0" encoding="UTF-8" standalone="no"?>
<!-- Created with Inkscape (http://www.inkscape.org/) -->

<svg
   width="4499.3047"
   height="4499.3047"
   viewBox="0 0 1190.441 1190.4411"
   version="1.1"
   id="svg5"
   inkscape:version="1.1 (c68e22c387, 2021-05-23)"
   sodipodi:docname="autonics-icon-light.svg"
   xmlns:inkscape="http://www.inkscape.org/namespaces/inkscape"
   xmlns:sodipodi="http://sodipodi.sourceforge.net/DTD/sodipodi-0.dtd"
   xmlns="http://www.w3.org/2000/svg"
   xmlns:svg="http://www.w3.org/2000/svg">
  <sodipodi:namedview
     id="namedview7"
     pagecolor="#e6e6e6"
     bordercolor="#666666"
     borderopacity="1.0"
     inkscape:pageshadow="2"
     inkscape:pageopacity="0"
     inkscape:pagecheckerboard="0"
     inkscape:document-units="px"
     showgrid="false"
     showborder="false"
     units="px"
     inkscape:zoom="0.064009891"
     inkscape:cx="710.82764"
     inkscape:cy="2710.5186"
     inkscape:window-width="1920"
     inkscape:window-height="1017"
     inkscape:window-x="1912"
     inkscape:window-y="-8"
     inkscape:window-maximized="1"
     inkscape:current-layer="layer1"
     inkscape:snap-smooth-nodes="true"
     inkscape:snap-midpoints="true"
     inkscape:snap-object-midpoints="true"
     inkscape:snap-center="true"
     inkscape:snap-global="false"
     fit-margin-top="0"
     fit-margin-left="0"
     fit-margin-right="0"
     fit-margin-bottom="0" />
  <defs
     id="defs2">
    <inkscape:path-effect
       effect="gears"
       id="path-effect1744"
       is_visible="true"
       lpeversion="1"
       teeth="10"
       phi="3.3"
       min_radius="4" />
    <filter
       style="color-interpolation-filters:sRGB"
       inkscape:label="Invert"
       id="filter45388"
       x="-0.012110493"
       y="-0.011891506"
       width="1.0242209"
       height="1.023783">
      <feColorMatrix
         type="hueRotate"
         values="180"
         result="color1"
         id="feColorMatrix45384" />
      <feColorMatrix
         values="-1 0 0 0 1 0 -1 0 0 1 0 0 -1 0 1 -0.21 -0.72 -0.07 2 0 "
         result="color2"
         id="feColorMatrix45386" />
      <feGaussianBlur
         stdDeviation="0.73236112"
         id="feGaussianBlur45408" />
    </filter>
  </defs>
  <g
     inkscape:label="Warstwa 1"
     inkscape:groupmode="layer"
     id="layer1"
     transform="translate(1051.5823,-263.38028)">
    <rect
       style="font-variation-settings:'wght' 751;fill:#222629;fill-opacity:1;fill-rule:evenodd;stroke-width:2;stroke-linecap:square;stroke-linejoin:round"
       id="rect939"
       width="1190.441"
       height="1190.441"
       x="-1051.5823"
       y="263.38028"
       ry="0" />
    <g
       id="g2626">
      <path
         id="path1848"
         style="font-variation-settings:'wght' 812;opacity:1;fill:#5e6971;fill-opacity:1;fill-rule:evenodd;stroke-width:2.72785;stroke-linecap:square;stroke-linejoin:round"
         d="m -685.68233,469.78542 -14.28284,84.85425 a 307.70806,307.70806 0 0 0 -64.90198,17.45785 307.70806,307.70806 0 0 1 0.79428,-0.32195 l -54.76825,-66.31016 -56.88438,32.84193 30.05759,80.62762 a 307.70806,307.70806 0 0 0 -47.48082,47.57385 307.70806,307.70806 0 0 1 0.52969,-0.68006 l -80.58526,-30.04208 -32.8424,56.88435 66.34424,54.79563 a 307.70806,307.70806 0 0 0 -17.34262,64.99344 307.70806,307.70806 0 0 1 0.12867,-0.90588 l -84.81029,14.27562 v 65.68438 l 84.85421,14.28284 a 307.70806,307.70806 0 0 0 17.45787,64.90197 307.70806,307.70806 0 0 1 -0.32195,-0.79428 l -66.31013,54.76826 32.8424,56.8844 80.62712,-30.0582 a 307.70806,307.70806 0 0 0 47.5728,47.4803 307.70806,307.70806 0 0 1 -0.67903,-0.5291 l -30.04209,80.5858 56.88438,32.8424 54.79667,-66.3448 a 307.70806,307.70806 0 0 0 64.98259,17.3411 307.70806,307.70806 0 0 1 -0.89606,-0.1271 l 14.27559,84.8103 h 65.68437 l 14.28284,-84.8543 a 307.70806,307.70806 0 0 0 64.91078,-17.4609 307.70806,307.70806 0 0 1 -0.80305,0.3256 l 54.76823,66.3101 56.88438,-32.8424 -30.05759,-80.6271 a 307.70806,307.70806 0 0 0 47.48495,-47.5785 307.70806,307.70806 0 0 1 -0.53381,0.6847 l 80.58577,30.0421 32.84192,-56.8844 -66.34427,-54.79667 a 307.70806,307.70806 0 0 0 17.34262,-64.99241 307.70806,307.70806 0 0 1 -0.12868,0.90588 l 84.81033,-14.27559 v -65.68438 l -84.81033,-14.27562 a 307.70806,307.70806 0 0 0 -17.82475,-65.70657 307.70806,307.70806 0 0 1 0.64492,1.5911 l 66.31016,-54.76822 -32.84192,-56.88385 -80.60386,30.0488 a 307.70806,307.70806 0 0 0 -47.63844,-47.50408 307.70806,307.70806 0 0 1 0.72089,0.56171 l 30.04209,-80.58576 -56.88438,-32.84193 -54.78167,66.3267 a 307.70806,307.70806 0 0 0 -64.10151,-17.19636 l -14.27562,-84.81033 z m 185.73803,121.8711 a 307.70806,307.70806 0 0 1 0.95859,0.53279 307.70806,307.70806 0 0 1 1.73323,1.03664 307.70806,307.70806 0 0 0 -2.69182,-1.56943 z m 112.62154,111.55032 a 307.70806,307.70806 0 0 1 0.96584,1.61126 307.70806,307.70806 0 0 1 0.56069,1.00716 307.70806,307.70806 0 0 0 -1.52653,-2.61842 z M -652.8404,725.60855 A 133.06294,133.06294 0 0 1 -519.7772,858.67174 133.06294,133.06294 0 0 1 -652.8404,991.73443 133.06294,133.06294 0 0 1 -785.90308,858.67174 133.06294,133.06294 0 0 1 -652.8404,725.60855 Z" />
      <path
         id="path11188"
         style="font-variation-settings:'wght' 812;opacity:1;fill:#c8702b;fill-opacity:1;fill-rule:evenodd;stroke-width:5.24161;stroke-linecap:square;stroke-linejoin:round"
         d="m -180.31407,476.31546 a 247.13375,247.13375 0 0 0 -33.45618,11.647 l 6.70129,70.29908 a 181.24982,181.24982 0 0 0 -37.35393,28.51921 l -65.92879,-24.57808 a 247.13375,247.13375 0 0 0 -35.35102,61.22971 l 54.24954,44.80648 a 181.24982,181.24982 0 0 0 -6.02126,46.60958 l -64.23144,29.34602 a 247.13375,247.13375 0 0 0 6.64182,34.79678 247.13375,247.13375 0 0 0 11.64654,33.45631 l 70.29907,-6.70131 a 181.24982,181.24982 0 0 0 28.51922,37.35395 l -24.57811,65.9288 a 247.13375,247.13375 0 0 0 61.2296,35.35049 l 44.80646,-54.24951 a 181.24982,181.24982 0 0 0 46.60971,6.02176 l 29.346047,64.23139 a 247.13375,247.13375 0 0 0 34.797294,-6.6419 247.13375,247.13375 0 0 0 33.455788,-11.64642 l -6.7013,-70.29907 A 181.24982,181.24982 0 0 0 11.720587,843.27588 L 77.648866,867.8541 A 247.13375,247.13375 0 0 0 112.99999,806.62489 L 58.750356,761.81792 a 181.24982,181.24982 0 0 0 6.021392,-46.60908 l 64.231442,-29.34603 a 247.13375,247.13375 0 0 0 -6.64148,-34.79741 247.13375,247.13375 0 0 0 -11.6136,-33.45925 L 40.544037,624.2986 A 181.24982,181.24982 0 0 0 11.893425,586.96541 l 24.64091,-66.09756 a 247.13375,247.13375 0 0 0 -61.180313,-35.3225 l -44.921719,54.38847 a 181.24982,181.24982 0 0 0 -46.656803,-6.14557 l -29.30622,-64.14476 a 247.13375,247.13375 0 0 0 -34.78335,6.67197 z M -138.48625,632.419 A 85.523611,85.523611 0 0 1 -33.741826,692.89322 85.523611,85.523611 0 0 1 -94.216041,797.63765 85.523611,85.523611 0 0 1 -198.96048,737.16342 85.523611,85.523611 0 0 1 -138.48625,632.419 Z" />
    </g>
  </g>
</svg>
