<?xml version="1.0" encoding="UTF-8" standalone="no"?>
<!-- Created with Inkscape (http://www.inkscape.org/) -->

<svg
   width="5119.7446"
   height="2940.1497"
   viewBox="0 0 1354.5991 777.91462"
   version="1.1"
   id="svg5"
   inkscape:version="1.1 (c68e22c387, 2021-05-23)"
   sodipodi:docname="autonics.svg"
   xmlns:inkscape="http://www.inkscape.org/namespaces/inkscape"
   xmlns:sodipodi="http://sodipodi.sourceforge.net/DTD/sodipodi-0.dtd"
   xmlns="http://www.w3.org/2000/svg"
   xmlns:svg="http://www.w3.org/2000/svg">
  <sodipodi:namedview
     id="namedview7"
     pagecolor="#e6e6e6"
     bordercolor="#666666"
     borderopacity="1.0"
     inkscape:pageshadow="2"
     inkscape:pageopacity="0"
     inkscape:pagecheckerboard="0"
     inkscape:document-units="px"
     showgrid="false"
     showborder="false"
     units="px"
     inkscape:zoom="0.045397086"
     inkscape:cx="-4592.8058"
     inkscape:cy="-165.20884"
     inkscape:window-width="1920"
     inkscape:window-height="1017"
     inkscape:window-x="-8"
     inkscape:window-y="-8"
     inkscape:window-maximized="1"
     inkscape:current-layer="layer1"
     inkscape:snap-smooth-nodes="true"
     inkscape:snap-midpoints="true"
     inkscape:snap-object-midpoints="true"
     inkscape:snap-center="true"
     inkscape:snap-global="false"
     fit-margin-top="0"
     fit-margin-left="0"
     fit-margin-right="0"
     fit-margin-bottom="0" />
  <defs
     id="defs2">
    <inkscape:path-effect
       effect="gears"
       id="path-effect1744"
       is_visible="true"
       lpeversion="1"
       teeth="10"
       phi="3.3"
       min_radius="4" />
    <filter
       style="color-interpolation-filters:sRGB"
       inkscape:label="Invert"
       id="filter45388"
       x="-0.012110493"
       y="-0.011891506"
       width="1.0242209"
       height="1.023783">
      <feColorMatrix
         type="hueRotate"
         values="180"
         result="color1"
         id="feColorMatrix45384" />
      <feColorMatrix
         values="-1 0 0 0 1 0 -1 0 0 1 0 0 -1 0 1 -0.21 -0.72 -0.07 2 0 "
         result="color2"
         id="feColorMatrix45386" />
      <feGaussianBlur
         stdDeviation="0.73236112"
         id="feGaussianBlur45408" />
    </filter>
  </defs>
  <g
     inkscape:label="Warstwa 1"
     inkscape:groupmode="layer"
     id="layer1"
     transform="translate(1205.1052,-469.64349)">
    <path
       id="path1848"
       style="font-variation-settings:'wght' 812;opacity:1;fill:#5e6971;fill-opacity:1;fill-rule:evenodd;stroke-width:2.72785;stroke-linecap:square;stroke-linejoin:round"
       d="m -685.68233,469.78542 -14.28284,84.85425 a 307.70806,307.70806 0 0 0 -64.90198,17.45785 307.70806,307.70806 0 0 1 0.79428,-0.32195 l -54.76825,-66.31016 -56.88438,32.84193 30.05759,80.62762 a 307.70806,307.70806 0 0 0 -47.48082,47.57385 307.70806,307.70806 0 0 1 0.52969,-0.68006 l -80.58526,-30.04208 -32.8424,56.88435 66.34424,54.79563 a 307.70806,307.70806 0 0 0 -17.34262,64.99344 307.70806,307.70806 0 0 1 0.12867,-0.90588 l -84.81029,14.27562 v 65.68438 l 84.85421,14.28284 a 307.70806,307.70806 0 0 0 17.45787,64.90197 307.70806,307.70806 0 0 1 -0.32195,-0.79428 l -66.31013,54.76826 32.8424,56.8844 80.62712,-30.0582 a 307.70806,307.70806 0 0 0 47.5728,47.4803 307.70806,307.70806 0 0 1 -0.67903,-0.5291 l -30.04209,80.5858 56.88438,32.8424 54.79667,-66.3448 a 307.70806,307.70806 0 0 0 64.98259,17.3411 307.70806,307.70806 0 0 1 -0.89606,-0.1271 l 14.27559,84.8103 h 65.68437 l 14.28284,-84.8543 a 307.70806,307.70806 0 0 0 64.91078,-17.4609 307.70806,307.70806 0 0 1 -0.80305,0.3256 l 54.76823,66.3101 56.88438,-32.8424 -30.05759,-80.6271 a 307.70806,307.70806 0 0 0 47.48495,-47.5785 307.70806,307.70806 0 0 1 -0.53381,0.6847 l 80.58577,30.0421 32.84192,-56.8844 -66.34427,-54.79667 a 307.70806,307.70806 0 0 0 17.34262,-64.99241 307.70806,307.70806 0 0 1 -0.12868,0.90588 l 84.81033,-14.27559 v -65.68438 l -84.81033,-14.27562 a 307.70806,307.70806 0 0 0 -17.82475,-65.70657 307.70806,307.70806 0 0 1 0.64492,1.5911 l 66.31016,-54.76822 -32.84192,-56.88385 -80.60386,30.0488 a 307.70806,307.70806 0 0 0 -47.63844,-47.50408 307.70806,307.70806 0 0 1 0.72089,0.56171 l 30.04209,-80.58576 -56.88438,-32.84193 -54.78167,66.3267 a 307.70806,307.70806 0 0 0 -64.10151,-17.19636 l -14.27562,-84.81033 z m 185.73803,121.8711 a 307.70806,307.70806 0 0 1 0.95859,0.53279 307.70806,307.70806 0 0 1 1.73323,1.03664 307.70806,307.70806 0 0 0 -2.69182,-1.56943 z m 112.62154,111.55032 a 307.70806,307.70806 0 0 1 0.96584,1.61126 307.70806,307.70806 0 0 1 0.56069,1.00716 307.70806,307.70806 0 0 0 -1.52653,-2.61842 z M -652.8404,725.60855 A 133.06294,133.06294 0 0 1 -519.7772,858.67174 133.06294,133.06294 0 0 1 -652.8404,991.73443 133.06294,133.06294 0 0 1 -785.90308,858.67174 133.06294,133.06294 0 0 1 -652.8404,725.60855 Z" />
    <path
       id="path11188"
       style="font-variation-settings:'wght' 812;opacity:1;fill:#c8702b;fill-opacity:1;fill-rule:evenodd;stroke-width:5.24161;stroke-linecap:square;stroke-linejoin:round"
       d="m -180.31407,476.31546 a 247.13375,247.13375 0 0 0 -33.45618,11.647 l 6.70129,70.29908 a 181.24982,181.24982 0 0 0 -37.35393,28.51921 l -65.92879,-24.57808 a 247.13375,247.13375 0 0 0 -35.35102,61.22971 l 54.24954,44.80648 a 181.24982,181.24982 0 0 0 -6.02126,46.60958 l -64.23144,29.34602 a 247.13375,247.13375 0 0 0 6.64182,34.79678 247.13375,247.13375 0 0 0 11.64654,33.45631 l 70.29907,-6.70131 a 181.24982,181.24982 0 0 0 28.51922,37.35395 l -24.57811,65.9288 a 247.13375,247.13375 0 0 0 61.2296,35.35049 l 44.80646,-54.24951 a 181.24982,181.24982 0 0 0 46.60971,6.02176 l 29.346047,64.23139 a 247.13375,247.13375 0 0 0 34.797294,-6.6419 247.13375,247.13375 0 0 0 33.455788,-11.64642 l -6.7013,-70.29907 A 181.24982,181.24982 0 0 0 11.720587,843.27588 L 77.648866,867.8541 A 247.13375,247.13375 0 0 0 112.99999,806.62489 L 58.750356,761.81792 a 181.24982,181.24982 0 0 0 6.021392,-46.60908 l 64.231442,-29.34603 a 247.13375,247.13375 0 0 0 -6.64148,-34.79741 247.13375,247.13375 0 0 0 -11.6136,-33.45925 L 40.544037,624.2986 A 181.24982,181.24982 0 0 0 11.893425,586.96541 l 24.64091,-66.09756 a 247.13375,247.13375 0 0 0 -61.180313,-35.3225 l -44.921719,54.38847 a 181.24982,181.24982 0 0 0 -46.656803,-6.14557 l -29.30622,-64.14476 a 247.13375,247.13375 0 0 0 -34.78335,6.67197 z M -138.48625,632.419 A 85.523611,85.523611 0 0 1 -33.741826,692.89322 85.523611,85.523611 0 0 1 -94.216041,797.63765 85.523611,85.523611 0 0 1 -198.96048,737.16342 85.523611,85.523611 0 0 1 -138.48625,632.419 Z" />
    <g
       aria-label="Autonics"
       id="text1311"
       style="font-size:318.43px;line-height:1.25;font-family:'Exo 2';-inkscape-font-specification:'Exo 2, @wght=812';font-variation-settings:'wght' 812;fill:#222629;stroke-width:7.96072">
      <path
         d="m -1068.8172,909.18516 q 7.6423,0 13.0557,4.45802 5.7317,4.13959 7.6423,11.46348 l 59.86481,203.79524 h -62.09381 l -37.8932,-150.299 q -1.2737,-5.73174 -2.5474,-11.78191 -0.9553,-6.3686 -1.5922,-12.10034 h -8.5976 q -0.9553,5.73174 -1.9106,12.10034 -0.9553,6.05017 -2.229,11.78191 l -37.8932,150.299 h -62.0938 l 59.5464,-203.79524 q 2.229,-7.32389 7.6423,-11.46348 5.7318,-4.45802 13.0556,-4.45802 z m 29.9324,124.50614 v 43.6249 h -115.9085 v -43.6249 z"
         id="path832" />
      <path
         d="m -915.97092,970.64215 v 99.98705 q 0,7.0054 3.1843,10.1897 3.50273,2.8659 11.14505,2.8659 7.64232,0 15.60307,-1.9106 7.96075,-2.229 20.37952,-7.9607 l 3.50273,29.9324 q -16.55836,14.9662 -32.79829,22.2901 -15.9215,7.3239 -33.75358,7.3239 -46.17235,0 -46.17235,-44.2618 V 970.64215 Z m 103.17132,0 v 158.25975 h -46.49078 l -7.00546,-31.843 -5.73174,-4.1396 V 970.64215 Z"
         id="path834" />
      <path
         d="m -706.4443,927.97253 v 146.15937 q 0,7.0055 3.50273,10.1898 3.50273,2.8658 11.78191,2.8658 h 18.15051 l 6.3686,38.5301 q -6.3686,2.5474 -15.60307,4.1395 -9.23447,1.5922 -18.46894,2.2291 -9.23447,0.9552 -16.23993,0.9552 -22.2901,0 -35.34573,-11.4634 -13.05563,-11.7819 -13.05563,-32.4799 l -0.31843,-161.12557 z m 40.75904,42.66962 v 36.30105 h -127.05357 v -34.7089 l 30.56928,-1.59215 z"
         id="path836" />
      <path
         d="m -564.74357,966.18413 q 31.20614,0 49.99351,8.27918 19.1058,7.96075 27.38498,26.42969 8.27918,18.1505 8.27918,49.0382 0,30.5693 -8.27918,48.7198 -8.27918,17.8321 -27.38498,26.1113 -18.78737,7.9607 -49.99351,7.9607 -31.52457,0 -50.31193,-7.9607 -18.78737,-8.2792 -27.38498,-26.1113 -8.27918,-18.1505 -8.27918,-48.7198 0,-30.8877 8.27918,-49.0382 8.59761,-18.46894 27.38498,-26.42969 18.78736,-8.27918 50.31193,-8.27918 z m 0,40.75907 q -9.5529,0 -14.96621,3.5027 -5.09488,3.5027 -7.32389,12.7372 -1.91058,8.916 -1.91058,26.7481 0,17.1952 1.91058,26.4297 2.22901,8.916 7.32389,12.4188 5.41331,3.1843 14.96621,3.1843 9.23447,0 14.64778,-3.1843 5.41331,-3.5028 7.32389,-12.4188 1.91058,-9.2345 1.91058,-26.4297 0,-17.8321 -1.91058,-26.7481 -1.91058,-9.2345 -7.32389,-12.7372 -5.41331,-3.5027 -14.64778,-3.5027 z"
         id="path838" />
      <path
         d="m -335.15576,966.18413 q 46.17235,0 46.17235,44.26177 v 118.456 h -58.90955 v -99.9871 q 0,-7.3239 -3.1843,-10.1897 -2.86587,-2.8659 -10.50819,-2.8659 -7.64232,0 -16.55835,2.229 -8.91604,2.229 -22.2901,7.9608 l -2.86587,-30.25088 q 16.23993,-14.64778 33.75357,-21.97167 17.83208,-7.64232 34.39044,-7.64232 z m -71.64674,4.45802 7.32389,31.84295 5.09488,3.8212 v 122.5956 h -58.90955 V 970.64215 Z"
         id="path840" />
      <path
         d="M -198.23118,970.64215 V 1128.9019 H -256.8223 V 970.64215 Z m -16.55836,-71.64675 q 17.19522,0 17.19522,17.51365 v 16.55836 q 0,17.51365 -17.19522,17.51365 h -25.4744 q -17.19522,0 -17.19522,-17.51365 v -16.55836 q 0,-17.51365 17.19522,-17.51365 z"
         id="path842" />
      <path
         d="m -88.054453,966.18413 q 9.5529,0 20.69795,0.95529 11.145049,0.95529 22.290099,3.1843 11.14505,2.22901 20.37952,6.68703 l -6.05017,36.61945 q -14.32935,0 -25.79283,0 -11.463479,-0.3184 -21.334809,-0.3184 -11.78191,0 -18.78737,3.1843 -6.687027,2.8658 -9.552897,10.8266 -2.86587,7.6423 -2.86587,21.9717 0,14.6477 2.86587,22.6085 2.86587,7.9607 9.552897,11.145 7.00546,2.8659 18.78737,2.8659 5.41331,0 13.37406,0 7.960749,-0.3184 17.513649,-0.9553 9.87133,-0.6368 19.1058,-1.5921 l 5.41331,36.9378 q -13.37406,6.6871 -30.88771,9.5529 -17.513649,2.8659 -35.027299,2.8659 -30.569277,0 -48.719787,-7.9607 -18.15051,-8.2792 -26.11126,-26.4297 -7.64232,-18.469 -7.64232,-49.0382 0,-30.5693 7.96075,-48.7198 7.96075,-18.15054 26.11126,-26.11129 18.46894,-8.27918 48.719787,-8.27918 z"
         id="path844" />
      <path
         d="m 65.109907,966.18413 q 12.10034,0 26.42969,0.95529 14.647783,0.95529 28.340273,2.22901 13.69249,1.27372 23.56382,3.50273 l -3.82116,35.02734 q -15.60307,-0.3185 -31.52457,-0.3185 -15.921503,0 -30.569283,0 -11.14505,-0.3184 -16.87679,0 -5.731739,0.3185 -7.960749,1.9106 -1.91058,1.2737 -1.91058,5.0949 0,4.458 4.13959,6.0502 4.139589,1.2737 15.603069,4.458 l 38.211603,9.2344 q 20.69795,5.7318 30.56928,16.24 10.18976,10.5082 10.18976,30.8877 0,19.7426 -7.64232,30.8877 -7.32389,11.145 -23.88225,15.6031 -16.55836,4.458 -43.306483,4.458 -10.82662,0 -32.161429,-0.9553 -21.01638,-0.9553 -46.1723491,-5.4133 l 3.50272989,-35.0273 q 5.09487991,0.3184 14.01091921,0.3184 8.91604,0 20.06109,0 11.14505,0 21.97167,0 15.921499,0 23.563819,-0.3184 7.96075,-0.6369 10.50819,-2.229 2.54744,-1.9106 2.54744,-5.4133 0,-4.7765 -4.77645,-6.3686 -4.45802,-1.5922 -16.55836,-5.0949 L 34.222198,1062.35 q -16.55836,-4.7765 -25.1559694,-11.7819 -8.59760983,-7.0055 -12.1003397,-16.5584 -3.1843,-9.5529 -3.1843,-21.9717 0,-15.60302 6.68702987,-25.47435 7.00545983,-10.18976 22.29009923,-15.28464 15.60307,-5.09488 42.351189,-5.09488 z"
         id="path846" />
    </g>
  </g>
</svg>
