<?xml version="1.0" encoding="UTF-8" standalone="no"?>
<!-- Created with Inkscape (http://www.inkscape.org/) -->

<svg
   width="5119.7446"
   height="3174.8445"
   viewBox="0 0 1354.5991 840.01096"
   version="1.1"
   id="svg5"
   inkscape:version="1.1 (c68e22c387, 2021-05-23)"
   sodipodi:docname="autonics-slogan-light — kopia.svg"
   xmlns:inkscape="http://www.inkscape.org/namespaces/inkscape"
   xmlns:sodipodi="http://sodipodi.sourceforge.net/DTD/sodipodi-0.dtd"
   xmlns="http://www.w3.org/2000/svg"
   xmlns:svg="http://www.w3.org/2000/svg">
  <sodipodi:namedview
     id="namedview7"
     pagecolor="#e6e6e6"
     bordercolor="#666666"
     borderopacity="1.0"
     inkscape:pageshadow="2"
     inkscape:pageopacity="0"
     inkscape:pagecheckerboard="0"
     inkscape:document-units="px"
     showgrid="false"
     showborder="false"
     units="px"
     inkscape:zoom="0.12725806"
     inkscape:cx="3029.2777"
     inkscape:cy="2659.9494"
     inkscape:window-width="1920"
     inkscape:window-height="1017"
     inkscape:window-x="1912"
     inkscape:window-y="-8"
     inkscape:window-maximized="1"
     inkscape:current-layer="layer1"
     inkscape:snap-smooth-nodes="true"
     inkscape:snap-midpoints="true"
     inkscape:snap-object-midpoints="true"
     inkscape:snap-center="true"
     inkscape:snap-global="true"
     fit-margin-top="0"
     fit-margin-left="0"
     fit-margin-right="0"
     fit-margin-bottom="0" />
  <defs
     id="defs2">
    <inkscape:path-effect
       effect="gears"
       id="path-effect1744"
       is_visible="true"
       lpeversion="1"
       teeth="10"
       phi="3.3"
       min_radius="4" />
    <filter
       style="color-interpolation-filters:sRGB"
       inkscape:label="Invert"
       id="filter45388"
       x="-0.012110493"
       y="-0.011891506"
       width="1.0242209"
       height="1.023783">
      <feColorMatrix
         type="hueRotate"
         values="180"
         result="color1"
         id="feColorMatrix45384" />
      <feColorMatrix
         values="-1 0 0 0 1 0 -1 0 0 1 0 0 -1 0 1 -0.21 -0.72 -0.07 2 0 "
         result="color2"
         id="feColorMatrix45386" />
      <feGaussianBlur
         stdDeviation="0.73236112"
         id="feGaussianBlur45408" />
    </filter>
  </defs>
  <g
     inkscape:label="Warstwa 1"
     inkscape:groupmode="layer"
     id="layer1"
     transform="translate(1205.1052,-469.64349)">
    <path
       id="path1848"
       style="font-variation-settings:'wght' 812;opacity:1;fill:#3e4346;fill-opacity:1;fill-rule:evenodd;stroke-width:2.72785;stroke-linecap:square;stroke-linejoin:round"
       d="m -685.68233,469.78542 -14.28284,84.85425 a 307.70806,307.70806 0 0 0 -64.90198,17.45785 307.70806,307.70806 0 0 1 0.79428,-0.32195 l -54.76825,-66.31016 -56.88438,32.84193 30.05759,80.62762 a 307.70806,307.70806 0 0 0 -47.48082,47.57385 307.70806,307.70806 0 0 1 0.52969,-0.68006 l -80.58526,-30.04208 -32.8424,56.88435 66.34424,54.79563 a 307.70806,307.70806 0 0 0 -17.34262,64.99344 307.70806,307.70806 0 0 1 0.12867,-0.90588 l -84.81029,14.27562 v 65.68438 l 84.85421,14.28284 a 307.70806,307.70806 0 0 0 17.45787,64.90197 307.70806,307.70806 0 0 1 -0.32195,-0.79428 l -66.31013,54.76826 32.8424,56.8844 80.62712,-30.0582 a 307.70806,307.70806 0 0 0 47.5728,47.4803 307.70806,307.70806 0 0 1 -0.67903,-0.5291 l -30.04209,80.5858 56.88438,32.8424 54.79667,-66.3448 a 307.70806,307.70806 0 0 0 64.98259,17.3411 307.70806,307.70806 0 0 1 -0.89606,-0.1271 l 14.27559,84.8103 h 65.68437 l 14.28284,-84.8543 a 307.70806,307.70806 0 0 0 64.91078,-17.4609 307.70806,307.70806 0 0 1 -0.80305,0.3256 l 54.76823,66.3101 56.88438,-32.8424 -30.05759,-80.6271 a 307.70806,307.70806 0 0 0 47.48495,-47.5785 307.70806,307.70806 0 0 1 -0.53381,0.6847 l 80.58577,30.0421 32.84192,-56.8844 -66.34427,-54.79667 a 307.70806,307.70806 0 0 0 17.34262,-64.99241 307.70806,307.70806 0 0 1 -0.12868,0.90588 l 84.81033,-14.27559 v -65.68438 l -84.81033,-14.27562 a 307.70806,307.70806 0 0 0 -17.82475,-65.70657 307.70806,307.70806 0 0 1 0.64492,1.5911 l 66.31016,-54.76822 -32.84192,-56.88385 -80.60386,30.0488 a 307.70806,307.70806 0 0 0 -47.63844,-47.50408 307.70806,307.70806 0 0 1 0.72089,0.56171 l 30.04209,-80.58576 -56.88438,-32.84193 -54.78167,66.3267 a 307.70806,307.70806 0 0 0 -64.10151,-17.19636 l -14.27562,-84.81033 z m 185.73803,121.8711 a 307.70806,307.70806 0 0 1 0.95859,0.53279 307.70806,307.70806 0 0 1 1.73323,1.03664 307.70806,307.70806 0 0 0 -2.69182,-1.56943 z m 112.62154,111.55032 a 307.70806,307.70806 0 0 1 0.96584,1.61126 307.70806,307.70806 0 0 1 0.56069,1.00716 307.70806,307.70806 0 0 0 -1.52653,-2.61842 z M -652.8404,725.60855 A 133.06294,133.06294 0 0 1 -519.7772,858.67174 133.06294,133.06294 0 0 1 -652.8404,991.73443 133.06294,133.06294 0 0 1 -785.90308,858.67174 133.06294,133.06294 0 0 1 -652.8404,725.60855 Z" />
    <path
       id="path11188"
       style="font-variation-settings:'wght' 812;opacity:1;fill:#c8702b;fill-opacity:1;fill-rule:evenodd;stroke-width:5.24161;stroke-linecap:square;stroke-linejoin:round"
       d="m -180.31407,476.31546 a 247.13375,247.13375 0 0 0 -33.45618,11.647 l 6.70129,70.29908 a 181.24982,181.24982 0 0 0 -37.35393,28.51921 l -65.92879,-24.57808 a 247.13375,247.13375 0 0 0 -35.35102,61.22971 l 54.24954,44.80648 a 181.24982,181.24982 0 0 0 -6.02126,46.60958 l -64.23144,29.34602 a 247.13375,247.13375 0 0 0 6.64182,34.79678 247.13375,247.13375 0 0 0 11.64654,33.45631 l 70.29907,-6.70131 a 181.24982,181.24982 0 0 0 28.51922,37.35395 l -24.57811,65.9288 a 247.13375,247.13375 0 0 0 61.2296,35.35049 l 44.80646,-54.24951 a 181.24982,181.24982 0 0 0 46.60971,6.02176 l 29.346047,64.23139 a 247.13375,247.13375 0 0 0 34.797294,-6.6419 247.13375,247.13375 0 0 0 33.455788,-11.64642 l -6.7013,-70.29907 A 181.24982,181.24982 0 0 0 11.720587,843.27588 L 77.648866,867.8541 A 247.13375,247.13375 0 0 0 112.99999,806.62489 L 58.750356,761.81792 a 181.24982,181.24982 0 0 0 6.021392,-46.60908 l 64.231442,-29.34603 a 247.13375,247.13375 0 0 0 -6.64148,-34.79741 247.13375,247.13375 0 0 0 -11.6136,-33.45925 L 40.544037,624.2986 A 181.24982,181.24982 0 0 0 11.893425,586.96541 l 24.64091,-66.09756 a 247.13375,247.13375 0 0 0 -61.180313,-35.3225 l -44.921719,54.38847 a 181.24982,181.24982 0 0 0 -46.656803,-6.14557 l -29.30622,-64.14476 a 247.13375,247.13375 0 0 0 -34.78335,6.67197 z M -138.48625,632.419 A 85.523611,85.523611 0 0 1 -33.741826,692.89322 85.523611,85.523611 0 0 1 -94.216041,797.63765 85.523611,85.523611 0 0 1 -198.96048,737.16342 85.523611,85.523611 0 0 1 -138.48625,632.419 Z" />
    <g
       aria-label="Autonics"
       id="text1311"
       style="font-size:318.43px;line-height:1.25;font-family:'Exo 2';-inkscape-font-specification:'Exo 2, @wght=812';font-variation-settings:'wght' 812;fill:#b7cbda;stroke-width:7.96072;fill-opacity:1">
      <path
         d="m -1068.8172,909.18516 q 7.6423,0 13.0557,4.45802 5.7317,4.13959 7.6423,11.46348 l 59.86481,203.79524 h -62.09381 l -37.8932,-150.299 q -1.2737,-5.73174 -2.5474,-11.78191 -0.9553,-6.3686 -1.5922,-12.10034 h -8.5976 q -0.9553,5.73174 -1.9106,12.10034 -0.9553,6.05017 -2.229,11.78191 l -37.8932,150.299 h -62.0938 l 59.5464,-203.79524 q 2.229,-7.32389 7.6423,-11.46348 5.7318,-4.45802 13.0556,-4.45802 z m 29.9324,124.50614 v 43.6249 h -115.9085 v -43.6249 z"
         id="path832"
         style="fill:#b7cbda;fill-opacity:1" />
      <path
         d="m -915.97092,970.64215 v 99.98705 q 0,7.0054 3.1843,10.1897 3.50273,2.8659 11.14505,2.8659 7.64232,0 15.60307,-1.9106 7.96075,-2.229 20.37952,-7.9607 l 3.50273,29.9324 q -16.55836,14.9662 -32.79829,22.2901 -15.9215,7.3239 -33.75358,7.3239 -46.17235,0 -46.17235,-44.2618 V 970.64215 Z m 103.17132,0 v 158.25975 h -46.49078 l -7.00546,-31.843 -5.73174,-4.1396 V 970.64215 Z"
         id="path834"
         style="fill:#b7cbda;fill-opacity:1" />
      <path
         d="m -706.4443,927.97253 v 146.15937 q 0,7.0055 3.50273,10.1898 3.50273,2.8658 11.78191,2.8658 h 18.15051 l 6.3686,38.5301 q -6.3686,2.5474 -15.60307,4.1395 -9.23447,1.5922 -18.46894,2.2291 -9.23447,0.9552 -16.23993,0.9552 -22.2901,0 -35.34573,-11.4634 -13.05563,-11.7819 -13.05563,-32.4799 l -0.31843,-161.12557 z m 40.75904,42.66962 v 36.30105 h -127.05357 v -34.7089 l 30.56928,-1.59215 z"
         id="path836"
         style="fill:#b7cbda;fill-opacity:1" />
      <path
         d="m -564.74357,966.18413 q 31.20614,0 49.99351,8.27918 19.1058,7.96075 27.38498,26.42969 8.27918,18.1505 8.27918,49.0382 0,30.5693 -8.27918,48.7198 -8.27918,17.8321 -27.38498,26.1113 -18.78737,7.9607 -49.99351,7.9607 -31.52457,0 -50.31193,-7.9607 -18.78737,-8.2792 -27.38498,-26.1113 -8.27918,-18.1505 -8.27918,-48.7198 0,-30.8877 8.27918,-49.0382 8.59761,-18.46894 27.38498,-26.42969 18.78736,-8.27918 50.31193,-8.27918 z m 0,40.75907 q -9.5529,0 -14.96621,3.5027 -5.09488,3.5027 -7.32389,12.7372 -1.91058,8.916 -1.91058,26.7481 0,17.1952 1.91058,26.4297 2.22901,8.916 7.32389,12.4188 5.41331,3.1843 14.96621,3.1843 9.23447,0 14.64778,-3.1843 5.41331,-3.5028 7.32389,-12.4188 1.91058,-9.2345 1.91058,-26.4297 0,-17.8321 -1.91058,-26.7481 -1.91058,-9.2345 -7.32389,-12.7372 -5.41331,-3.5027 -14.64778,-3.5027 z"
         id="path838"
         style="fill:#b7cbda;fill-opacity:1" />
      <path
         d="m -335.15576,966.18413 q 46.17235,0 46.17235,44.26177 v 118.456 h -58.90955 v -99.9871 q 0,-7.3239 -3.1843,-10.1897 -2.86587,-2.8659 -10.50819,-2.8659 -7.64232,0 -16.55835,2.229 -8.91604,2.229 -22.2901,7.9608 l -2.86587,-30.25088 q 16.23993,-14.64778 33.75357,-21.97167 17.83208,-7.64232 34.39044,-7.64232 z m -71.64674,4.45802 7.32389,31.84295 5.09488,3.8212 v 122.5956 h -58.90955 V 970.64215 Z"
         id="path840"
         style="fill:#b7cbda;fill-opacity:1" />
      <path
         d="M -198.23118,970.64215 V 1128.9019 H -256.8223 V 970.64215 Z m -16.55836,-71.64675 q 17.19522,0 17.19522,17.51365 v 16.55836 q 0,17.51365 -17.19522,17.51365 h -25.4744 q -17.19522,0 -17.19522,-17.51365 v -16.55836 q 0,-17.51365 17.19522,-17.51365 z"
         id="path842"
         style="fill:#b7cbda;fill-opacity:1" />
      <path
         d="m -88.054453,966.18413 q 9.5529,0 20.69795,0.95529 11.145049,0.95529 22.290099,3.1843 11.14505,2.22901 20.37952,6.68703 l -6.05017,36.61945 q -14.32935,0 -25.79283,0 -11.463479,-0.3184 -21.334809,-0.3184 -11.78191,0 -18.78737,3.1843 -6.687027,2.8658 -9.552897,10.8266 -2.86587,7.6423 -2.86587,21.9717 0,14.6477 2.86587,22.6085 2.86587,7.9607 9.552897,11.145 7.00546,2.8659 18.78737,2.8659 5.41331,0 13.37406,0 7.960749,-0.3184 17.513649,-0.9553 9.87133,-0.6368 19.1058,-1.5921 l 5.41331,36.9378 q -13.37406,6.6871 -30.88771,9.5529 -17.513649,2.8659 -35.027299,2.8659 -30.569277,0 -48.719787,-7.9607 -18.15051,-8.2792 -26.11126,-26.4297 -7.64232,-18.469 -7.64232,-49.0382 0,-30.5693 7.96075,-48.7198 7.96075,-18.15054 26.11126,-26.11129 18.46894,-8.27918 48.719787,-8.27918 z"
         id="path844"
         style="fill:#b7cbda;fill-opacity:1" />
      <path
         d="m 65.109907,966.18413 q 12.10034,0 26.42969,0.95529 14.647783,0.95529 28.340273,2.22901 13.69249,1.27372 23.56382,3.50273 l -3.82116,35.02734 q -15.60307,-0.3185 -31.52457,-0.3185 -15.921503,0 -30.569283,0 -11.14505,-0.3184 -16.87679,0 -5.731739,0.3185 -7.960749,1.9106 -1.91058,1.2737 -1.91058,5.0949 0,4.458 4.13959,6.0502 4.139589,1.2737 15.603069,4.458 l 38.211603,9.2344 q 20.69795,5.7318 30.56928,16.24 10.18976,10.5082 10.18976,30.8877 0,19.7426 -7.64232,30.8877 -7.32389,11.145 -23.88225,15.6031 -16.55836,4.458 -43.306483,4.458 -10.82662,0 -32.161429,-0.9553 -21.01638,-0.9553 -46.1723491,-5.4133 l 3.50272989,-35.0273 q 5.09487991,0.3184 14.01091921,0.3184 8.91604,0 20.06109,0 11.14505,0 21.97167,0 15.921499,0 23.563819,-0.3184 7.96075,-0.6369 10.50819,-2.229 2.54744,-1.9106 2.54744,-5.4133 0,-4.7765 -4.77645,-6.3686 -4.45802,-1.5922 -16.55836,-5.0949 L 34.222198,1062.35 q -16.55836,-4.7765 -25.1559694,-11.7819 -8.59760983,-7.0055 -12.1003397,-16.5584 -3.1843,-9.5529 -3.1843,-21.9717 0,-15.60302 6.68702987,-25.47435 7.00545983,-10.18976 22.29009923,-15.28464 15.60307,-5.09488 42.351189,-5.09488 z"
         id="path846"
         style="fill:#b7cbda;fill-opacity:1" />
    </g>
    <g
       aria-label="Technology is our future"
       id="text1653"
       style="font-size:93.5611px;line-height:1.25;font-family:'Exo 2';-inkscape-font-specification:'Exo 2, @wght=751';font-variation-settings:'wght' 751;fill:#c8702b;stroke-width:2.33904">
      <path
         d="m -1031.3658,1226.0108 v 64.5572 h -15.9054 v -64.5572 z m 19.0864,0 v 12.3501 h -54.0783 v -12.3501 z"
         id="path839" />
      <path
         d="m -992.03773,1242.9454 q 12.16294,0 17.3088,4.1167 5.23942,4.0231 5.23942,11.9758 0.0936,6.3622 -3.3682,9.4497 -3.46176,3.0875 -12.06938,3.0875 h -25.72931 v -8.1398 h 21.4255 q 3.18108,0 4.02313,-1.1228 0.84205,-1.2163 0.84205,-3.6488 0,-2.994 -1.6841,-4.0232 -1.59054,-1.1227 -5.52011,-1.1227 -3.55532,-0.094 -5.5201,0.842 -1.87123,0.9357 -2.61971,3.6489 -0.74846,2.7133 -0.74846,8.0463 0,5.333 0.93558,8.3269 0.93561,2.9004 3.18107,4.1167 2.33903,1.1227 6.36216,1.1227 3.18108,0 7.95269,-0.1871 4.86518,-0.2807 9.91748,-0.842 l 1.49698,9.4496 q -2.9004,1.4035 -6.45572,2.2455 -3.46176,0.7485 -7.2042,1.0292 -3.74245,0.3742 -7.39133,0.3742 -9.07541,0 -14.59551,-2.5261 -5.4266,-2.6197 -7.9527,-7.9527 -2.4326,-5.4266 -2.4326,-13.6599 0,-9.169 2.4326,-14.502 2.5261,-5.333 7.9527,-7.672 5.4265,-2.4326 14.22127,-2.4326 z"
         id="path841" />
      <path
         d="m -939.26936,1242.9454 q 2.61971,0 5.70723,0.2807 3.18108,0.2807 6.36215,0.9356 3.18108,0.6549 5.70723,1.7777 l -1.59054,9.6367 q -4.02312,-0.093 -7.39132,-0.093 -3.3682,-0.094 -6.17504,-0.094 -3.836,0 -6.08147,1.0292 -2.24546,1.0292 -3.27464,3.6489 -0.93561,2.5261 -0.93561,7.2977 0,4.6781 0.93561,7.2978 1.02918,2.6197 3.27464,3.6489 2.24547,1.0292 6.08147,1.0292 1.49698,0 3.83601,0 2.33903,-0.094 5.14586,-0.2807 2.80683,-0.1871 5.5201,-0.4678 l 1.40342,9.7303 q -3.836,1.8712 -8.79474,2.6197 -4.95874,0.7485 -9.91748,0.7485 -8.60762,0 -13.84704,-2.339 -5.23942,-2.4326 -7.57845,-7.7656 -2.24547,-5.333 -2.24547,-14.2213 0,-8.9818 2.33903,-14.3148 2.33903,-5.333 7.57845,-7.672 5.23942,-2.4326 13.9406,-2.4326 z"
         id="path843" />
      <path
         d="m -879.85807,1242.9454 q 13.28567,0 13.28567,12.9114 v 34.7112 h -15.43758 v -29.846 q 0,-2.7133 -1.02917,-3.6489 -1.02917,-1.0292 -3.46176,-1.0292 -2.71327,0 -5.61366,0.9357 -2.9004,0.842 -7.29777,2.9004 l -1.40342,-7.4849 q 5.0523,-4.5845 10.38528,-7.0171 5.42655,-2.4326 10.57241,-2.4326 z m -17.87017,-17.8702 0.0936,15.4376 q 0,3.836 -0.56137,7.2978 -0.4678,3.4617 -1.02917,5.6136 l 1.49698,1.3099 v 35.8339 h -15.43758 v -65.4928 z"
         id="path845" />
      <path
         d="m -823.06663,1242.9454 q 13.28568,0 13.28568,12.9114 v 34.7112 h -15.43758 v -29.846 q 0,-2.7133 -1.02918,-3.6489 -1.02917,-1.0292 -3.46176,-1.0292 -2.71327,0 -5.61366,0.9357 -2.9004,0.842 -7.29777,2.9004 l -0.74849,-8.2334 q 4.95874,-4.3038 10.1046,-6.4557 5.23942,-2.2455 10.19816,-2.2455 z m -21.05125,1.3099 1.77767,9.1689 1.40341,1.3099 v 35.8339 h -15.43758 v -46.3127 z"
         id="path847" />
      <path
         d="m -776.94115,1242.9454 q 8.98186,0 14.31485,2.4326 5.42654,2.339 7.76557,7.7656 2.33903,5.3329 2.33903,14.3148 0,8.8883 -2.33903,14.2213 -2.33903,5.333 -7.76557,7.672 -5.33299,2.339 -14.31485,2.339 -8.8883,0 -14.31485,-2.339 -5.33298,-2.339 -7.76557,-7.672 -2.43259,-5.333 -2.43259,-14.2213 0,-8.9819 2.43259,-14.3148 2.43259,-5.4266 7.76557,-7.7656 5.42655,-2.4326 14.31485,-2.4326 z m 0,10.9466 q -3.18108,0 -5.0523,1.1228 -1.77766,1.1227 -2.52615,4.0231 -0.74849,2.9004 -0.74849,8.4205 0,5.4265 0.74849,8.3269 0.74849,2.8069 2.52615,3.9296 1.87122,1.1227 5.0523,1.1227 3.27464,0 5.0523,-1.1227 1.87122,-1.1227 2.52615,-3.9296 0.74849,-2.9004 0.74849,-8.3269 0,-5.5201 -0.74849,-8.4205 -0.65493,-2.9004 -2.52615,-4.0231 -1.77766,-1.1228 -5.0523,-1.1228 z"
         id="path849" />
      <path
         d="m -728.47656,1225.0752 v 50.0552 q 0,2.2455 1.30985,3.3682 1.30986,1.0292 3.92957,1.0292 h 3.55532 l 1.77766,10.1981 q -1.21629,0.655 -3.46176,1.0292 -2.1519,0.4678 -4.49093,0.6549 -2.24547,0.2807 -3.83601,0.2807 -6.54927,0 -10.38528,-3.2746 -3.74244,-3.2747 -3.74244,-9.2626 v -54.0783 z"
         id="path851" />
      <path
         d="m -689.83599,1242.9454 q 8.98187,0 14.31485,2.4326 5.42654,2.339 7.76557,7.7656 2.33903,5.3329 2.33903,14.3148 0,8.8883 -2.33903,14.2213 -2.33903,5.333 -7.76557,7.672 -5.33298,2.339 -14.31485,2.339 -8.8883,0 -14.31484,-2.339 -5.33299,-2.339 -7.76558,-7.672 -2.43258,-5.333 -2.43258,-14.2213 0,-8.9819 2.43258,-14.3148 2.43259,-5.4266 7.76558,-7.7656 5.42654,-2.4326 14.31484,-2.4326 z m 0,10.9466 q -3.18107,0 -5.0523,1.1228 -1.77766,1.1227 -2.52615,4.0231 -0.74848,2.9004 -0.74848,8.4205 0,5.4265 0.74848,8.3269 0.74849,2.8069 2.52615,3.9296 1.87123,1.1227 5.0523,1.1227 3.27464,0 5.0523,-1.1227 1.87122,-1.1227 2.52615,-3.9296 0.74849,-2.9004 0.74849,-8.3269 0,-5.5201 -0.74849,-8.4205 -0.65493,-2.9004 -2.52615,-4.0231 -1.77766,-1.1228 -5.0523,-1.1228 z"
         id="path853" />
      <path
         d="m -635.66417,1242.9454 q 8.23337,0 13.09855,1.497 4.95874,1.497 7.11065,4.678 2.1519,3.1811 2.1519,8.5141 0,5.333 -2.1519,8.6076 -2.15191,3.1811 -7.11065,4.6781 -4.86518,1.4034 -13.19211,1.4034 -8.23338,0 -13.19212,-1.4034 -4.95874,-1.497 -7.11064,-4.6781 -2.15191,-3.2746 -2.15191,-8.5141 0,-5.3329 2.15191,-8.514 2.24547,-3.2746 7.2042,-4.7716 4.95874,-1.497 13.19212,-1.497 z m -0.0936,9.0754 q -4.67806,0 -6.45572,1.2163 -1.6841,1.2163 -1.6841,4.3974 0,3.1811 1.6841,4.4909 1.77766,1.2163 6.45572,1.2163 4.67805,0 6.36215,-1.2163 1.6841,-1.3098 1.6841,-4.4909 0,-3.1811 -1.6841,-4.3974 -1.6841,-1.2163 -6.36215,-1.2163 z m 27.78764,-7.7655 -0.84205,6.175 -12.53718,1.7776 -3.3682,-7.9526 z m -41.91537,25.355 7.39133,1.2163 q -1.2163,0.6549 -1.6841,2.1519 -0.46781,1.4034 0.18712,2.8068 0.74849,1.3099 3.18108,1.5906 l 17.02812,1.6841 q 7.48489,0.6549 10.5724,4.1167 3.18108,3.3682 3.18108,9.9174 0,6.1751 -2.52615,9.3562 -2.52615,3.2746 -8.04626,4.4909 -5.5201,1.3098 -14.50197,1.3098 -7.67201,0 -12.53718,-0.7484 -4.86518,-0.7485 -7.67201,-2.3391 -2.71327,-1.5905 -3.83601,-4.2102 -1.12273,-2.5262 -1.12273,-6.2686 0,-2.9004 1.02917,-5.0523 1.12274,-2.1519 3.74245,-3.7425 2.71327,-1.6841 7.48488,-3.0875 l 7.20421,-2.2454 5.33298,1.9647 -3.55532,2.3391 q -2.43259,1.7776 -3.92957,2.9004 -1.49697,1.0291 -2.1519,2.0583 -0.56137,1.0292 -0.56137,2.7133 0,1.9648 0.84205,2.9939 0.84205,1.0292 3.08752,1.4034 2.33902,0.3743 6.36215,0.3743 4.30381,0 6.64284,-0.3743 2.33903,-0.3742 3.27464,-1.3098 0.93561,-0.9356 0.93561,-2.7133 0,-1.6841 -0.74849,-2.4326 -0.65493,-0.7485 -2.33903,-1.1227 -1.6841,-0.3742 -4.39737,-0.6549 l -14.12772,-1.4034 q -3.64889,-0.3743 -5.89435,-2.0584 -2.15191,-1.6841 -2.99396,-3.9296 -0.74849,-2.339 -0.37424,-4.678 0.37424,-2.4326 1.77766,-4.3038 1.49698,-1.9648 3.74244,-2.7133 z"
         id="path855" />
      <path
         d="m -553.79823,1244.2553 -16.09251,46.4063 q -1.21629,3.5553 -3.27463,7.2042 -2.05835,3.6488 -5.33299,6.5492 -3.18107,2.994 -7.76557,4.3974 -4.58449,1.4034 -10.75952,0.4678 l -1.02918,-8.6076 q 5.61367,-1.4034 8.88831,-3.836 3.27464,-2.339 5.0523,-6.3622 l 3.08751,-6.7364 q 0.84205,-2.2454 1.59054,-5.3329 0.84205,-3.1811 1.40342,-5.4266 l 7.76557,-28.7232 z m -36.48882,0 7.85913,28.7232 q 0.4678,1.8712 0.74849,3.836 0.37424,1.8712 0.65492,3.7425 h 2.52615 l -4.77161,10.011 h -3.64888 q -1.77767,0 -3.08752,-1.0292 -1.30986,-1.0292 -1.87122,-2.6197 l -14.78266,-42.6638 z"
         id="path857" />
      <path
         d="m -514.22231,1244.2553 v 46.3127 h -15.34402 v -46.3127 z m -4.39737,-20.6771 q 4.5845,0 4.5845,4.5845 v 4.9588 q 0,4.5845 -4.5845,4.5845 h -6.64284 q -4.49093,0 -4.49093,-4.5845 v -4.9588 q 0,-4.5845 4.49093,-4.5845 z"
         id="path859" />
      <path
         d="m -485.312,1242.9454 q 3.46176,0 7.48489,0.2807 4.11669,0.2807 7.95269,0.6549 3.92957,0.3743 6.82996,0.9356 l -1.02917,9.3561 q -4.58449,0 -9.16899,-0.094 -4.58449,-0.094 -8.8883,-0.094 -3.46176,0 -5.33298,0.1871 -1.77766,0.094 -2.52615,0.655 -0.65493,0.5613 -0.65493,1.9647 0,1.7777 1.30986,2.4326 1.30985,0.5614 4.58449,1.4034 l 11.69514,2.8069 q 5.98791,1.5905 8.79474,4.5845 2.90039,2.9939 2.90039,8.9818 0,5.8008 -2.24546,8.9819 -2.15191,3.1811 -6.92352,4.3974 -4.67806,1.2163 -12.25651,1.2163 -3.08751,0 -9.07542,-0.2807 -5.89435,-0.2807 -13.005,-1.4034 l 1.02918,-9.4497 q 1.59054,0.094 4.21025,0.1871 2.61971,0 5.80078,0 3.18108,0 6.2686,0 4.77161,0 7.2042,-0.1871 2.43259,-0.2807 3.27464,-0.9356 0.84205,-0.7485 0.84205,-2.1519 0,-1.6841 -1.49698,-2.2455 -1.49698,-0.6549 -4.95874,-1.5905 l -11.32089,-2.9004 q -4.67805,-1.3099 -7.2042,-3.2747 -2.43259,-1.9647 -3.46176,-4.678 -0.93561,-2.8068 -0.93561,-6.4557 0,-4.6781 1.96478,-7.5785 1.96478,-2.9004 6.36215,-4.3038 4.49094,-1.4034 11.97582,-1.4034 z"
         id="path861" />
      <path
         d="m -410.4634,1242.9454 q 8.98187,0 14.31485,2.4326 5.42654,2.339 7.76557,7.7656 2.33903,5.3329 2.33903,14.3148 0,8.8883 -2.33903,14.2213 -2.33903,5.333 -7.76557,7.672 -5.33298,2.339 -14.31485,2.339 -8.8883,0 -14.31485,-2.339 -5.33298,-2.339 -7.76557,-7.672 -2.43259,-5.333 -2.43259,-14.2213 0,-8.9819 2.43259,-14.3148 2.43259,-5.4266 7.76557,-7.7656 5.42655,-2.4326 14.31485,-2.4326 z m 0,10.9466 q -3.18108,0 -5.0523,1.1228 -1.77766,1.1227 -2.52615,4.0231 -0.74849,2.9004 -0.74849,8.4205 0,5.4265 0.74849,8.3269 0.74849,2.8069 2.52615,3.9296 1.87122,1.1227 5.0523,1.1227 3.27464,0 5.0523,-1.1227 1.87122,-1.1227 2.52615,-3.9296 0.74849,-2.9004 0.74849,-8.3269 0,-5.5201 -0.74849,-8.4205 -0.65493,-2.9004 -2.52615,-4.0231 -1.77766,-1.1228 -5.0523,-1.1228 z"
         id="path863" />
      <path
         d="m -362.27952,1244.2553 v 29.8459 q -0.0936,2.5262 1.02917,3.6489 1.21629,1.0292 3.74244,1.0292 2.61971,0 5.23942,-0.8421 2.61971,-0.842 6.54928,-2.9003 l 1.12273,8.1398 q -5.0523,4.3973 -9.82391,6.5492 -4.77162,2.1519 -10.01104,2.1519 -13.28567,0 -13.28567,-12.9114 v -34.7111 z m 30.40735,0 v 46.3127 h -12.16294 l -1.77766,-9.169 -1.49698,-1.2163 v -35.9274 z"
         id="path865" />
      <path
         d="m -309.41757,1244.2553 1.96478,9.1689 1.49698,1.3099 v 35.8339 h -15.43758 v -46.3127 z m 22.64178,-1.3099 -1.40341,14.2213 h -4.11669 q -3.08752,0 -6.54928,0.7485 -3.46176,0.7485 -8.79474,2.339 l -0.93561,-8.5141 q 4.77161,-4.3038 9.73035,-6.5492 4.95874,-2.2455 9.54323,-2.2455 z"
         id="path867" />
      <path
         d="m -243.81327,1223.1104 q 1.6841,0 4.49093,0.094 2.90039,0.094 5.89435,0.3742 2.99395,0.1872 5.14586,0.5614 l -1.40342,9.6368 h -8.70118 q -3.27464,0 -4.58449,1.4034 -1.2163,1.3099 -1.2163,4.491 v 50.8972 h -15.43758 v -52.9556 q 0,-4.3038 1.49698,-7.5784 1.49698,-3.2747 4.95874,-5.0523 3.46176,-1.8713 9.35611,-1.8713 z m 12.06938,21.1449 v 9.7303 h -35.92746 v -9.2625 l 8.23337,-0.4678 z"
         id="path869" />
      <path
         d="m -210.3184,1244.2553 v 29.8459 q -0.0936,2.5262 1.02917,3.6489 1.21629,1.0292 3.74244,1.0292 2.61971,0 5.23942,-0.8421 2.61972,-0.842 6.54928,-2.9003 l 1.12273,8.1398 q -5.05229,4.3973 -9.82391,6.5492 -4.77162,2.1519 -10.01104,2.1519 -13.28567,0 -13.28567,-12.9114 v -34.7111 z m 30.40735,0 v 46.3127 h -12.16294 l -1.77766,-9.169 -1.49698,-1.2163 v -35.9274 z"
         id="path871" />
      <path
         d="m -149.69088,1231.5309 v 43.5995 q 0,2.339 1.12273,3.3682 1.12274,1.0292 3.64889,1.0292 h 5.70722 l 1.6841,10.1981 q -1.77766,0.655 -4.39737,1.0292 -2.52615,0.4678 -5.0523,0.6549 -2.52615,0.2807 -4.39737,0.2807 -6.45571,0 -10.1046,-3.3682 -3.64888,-3.3682 -3.64888,-9.4496 v -47.342 z m 12.44363,12.7244 v 9.7303 h -35.92746 v -9.2625 l 8.98186,-0.4678 z"
         id="path873" />
      <path
         d="m -115.26042,1244.2553 v 29.8459 q -0.0936,2.5262 1.02917,3.6489 1.2163,1.0292 3.74245,1.0292 2.61971,0 5.23942,-0.8421 2.61971,-0.842 6.549275,-2.9003 l 1.122733,8.1398 q -5.052298,4.3973 -9.823918,6.5492 -4.77161,2.1519 -10.01103,2.1519 -13.28568,0 -13.28568,-12.9114 v -34.7111 z m 30.407357,0 v 46.3127 h -12.162943 l -1.77766,-9.169 -1.496974,-1.2163 v -35.9274 z"
         id="path875" />
      <path
         d="m -62.398528,1244.2553 1.964783,9.1689 1.496978,1.3099 v 35.8339 h -15.437581 v -46.3127 z m 22.641785,-1.3099 -1.403416,14.2213 h -4.116688 q -3.087516,0 -6.549277,0.7485 -3.461761,0.7485 -8.794743,2.339 l -0.935611,-8.5141 q 4.771616,-4.3038 9.730354,-6.5492 4.958738,-2.2455 9.543232,-2.2455 z"
         id="path877" />
      <path
         d="m -11.804951,1242.9454 q 12.16294294,0 17.3088032,4.1167 5.2394218,4.0231 5.2394218,11.9758 0.09356,6.3622 -3.3681998,9.4497 -3.4617606,3.0875 -12.0693815,3.0875 H -30.423609 v -8.1398 h 21.4254913 q 3.1810773,0 4.0231272,-1.1228 0.8420498,-1.2163 0.8420498,-3.6488 0,-2.994 -1.6840997,-4.0232 -1.5905386,-1.1227 -5.5201046,-1.1227 -3.555322,-0.094 -5.520105,0.842 -1.871222,0.9357 -2.61971,3.6489 -0.748489,2.7133 -0.748489,8.0463 0,5.333 0.935611,8.3269 0.935611,2.9004 3.181077,4.1167 2.339027,1.1227 6.3621546,1.1227 3.1810772,0 7.9526931,-0.1871 4.865177,-0.2807 9.9174762,-0.842 l 1.4969776,9.4496 q -2.900394,1.4035 -6.4557157,2.2455 -3.46176053,0.7485 -7.2042044,1.0292 -3.7424438,0.3742 -7.3913264,0.3742 -9.075427,0 -14.595531,-2.5261 -5.426544,-2.6197 -7.952693,-7.9527 -2.432589,-5.4266 -2.432589,-13.6599 0,-9.169 2.432589,-14.502 2.526149,-5.333 7.952693,-7.672 5.426543,-2.4326 14.221286,-2.4326 z"
         id="path879" />
    </g>
  </g>
</svg>
